<?xml version="1.0" standalone="no"?>
<!DOCTYPE svg PUBLIC "-//W3C//DTD SVG 20010904//EN"
 "http://www.w3.org/TR/2001/REC-SVG-20010904/DTD/svg10.dtd">
<svg version="1.0" xmlns="http://www.w3.org/2000/svg"
 width="128.000000pt" height="128.000000pt" viewBox="0 0 128.000000 128.000000"
 preserveAspectRatio="xMidYMid meet">
<metadata>
Created by potrace 1.14, written by Peter Selinger 2001-2017
</metadata>
<g transform="translate(0.000000,128.000000) scale(0.100000,-0.100000)"
fill="#000000" stroke="none">
<path d="M0 756 c0 -410 3 -525 13 -529 10 -4 10 -6 0 -6 -10 -1 -13 -30 -13
-111 l0 -110 640 0 640 0 0 640 0 640 -640 0 -640 0 0 -524z m512 467 c-35
-51 -35 -58 -2 -28 l32 30 -16 -33 c-22 -43 -13 -56 25 -36 17 8 38 14 46 12
15 -3 15 -5 2 -18 -27 -27 -89 -122 -89 -136 0 -8 -4 -14 -10 -14 -9 0 -15 42
-11 83 5 40 -20 11 -59 -70 -23 -47 -47 -91 -53 -98 -13 -13 -60 -9 -104 11
-38 17 -57 18 -47 2 5 -8 0 -9 -17 -5 -13 4 -29 7 -36 7 -13 0 -56 106 -50
124 2 6 12 -5 22 -24 20 -40 44 -70 56 -70 5 0 6 7 3 15 -5 11 -2 13 10 9 11
-4 26 2 41 16 l23 22 4 -23 c2 -18 7 -14 27 27 14 29 59 84 113 137 88 86 127
112 90 60z m-91 -453 c20 -6 44 -19 54 -30 16 -18 20 -18 52 -5 20 8 36 15 37
15 1 0 2 -11 2 -25 0 -14 -4 -25 -9 -25 -4 0 -5 -5 -2 -10 4 -7 -7 -9 -32 -7
-21 3 -28 2 -15 0 15 -3 22 -11 22 -29 0 -30 -7 -30 -36 -3 -25 24 -57 20 -48
-6 10 -25 -10 -17 -39 16 -23 27 -32 30 -58 25 -29 -5 -30 -4 -18 11 8 9 9 14
3 10 -17 -10 -28 41 -13 59 13 16 50 18 100 4z m-60 -122 c7 -13 17 -26 23
-30 7 -5 5 -8 -6 -8 -9 0 -20 5 -24 11 -4 8 -9 7 -15 -2 -8 -12 -11 -11 -19 1
-5 8 -10 23 -10 33 0 25 37 21 51 -5z m329 -78 c-8 -5 -19 -10 -25 -10 -5 0
-3 5 5 10 8 5 20 10 25 10 6 0 3 -5 -5 -10z m-159 -63 c17 -13 26 -101 11
-110 -4 -3 -16 3 -25 14 -14 16 -14 19 -2 19 17 0 20 16 5 25 -6 4 -8 10 -5
15 3 5 1 11 -5 15 -12 7 -14 35 -2 35 4 0 14 -6 23 -13z m-181 -12 c10 -12 10
-15 -3 -15 -8 0 -20 7 -27 15 -10 12 -10 15 3 15 8 0 20 -7 27 -15z m-190 -85
c0 -5 -5 -10 -11 -10 -5 0 -7 5 -4 10 3 6 8 10 11 10 2 0 4 -4 4 -10z m-60
-134 c0 -2 -8 -10 -17 -17 -16 -13 -17 -12 -4 4 13 16 21 21 21 13z"/>
<path d="M370 706 c0 -2 7 -7 16 -10 8 -3 12 -2 9 4 -6 10 -25 14 -25 6z"/>
</g>
</svg>
